<?xml version="1.0" encoding="UTF-8" standalone="no"?>
<!DOCTYPE svg PUBLIC "-//W3C//DTD SVG 1.1//EN"
 "http://www.w3.org/Graphics/SVG/1.1/DTD/svg11.dtd">
<!-- Generated by graphviz version 2.38.0 (20140413.2041)
 -->
<!-- Title: g Pages: 1 -->
<svg width="244pt" height="188pt"
 viewBox="0.00 0.00 243.63 188.00" xmlns="http://www.w3.org/2000/svg" xmlns:xlink="http://www.w3.org/1999/xlink">
<g id="graph0" class="graph" transform="scale(1 1) rotate(0) translate(4 184)">
<title>g</title>
<polygon fill="white" stroke="none" points="-4,4 -4,-184 239.631,-184 239.631,4 -4,4"/>
<!-- clienta -->
<g id="node1" class="node"><title>clienta</title>
<ellipse fill="none" stroke="black" cx="54.3155" cy="-162" rx="54.1317" ry="18"/>
<text text-anchor="middle" x="54.3155" y="-157.8" font-family="Times,serif" font-size="14.00">client:v1.0.0</text>
</g>
<!-- clientb -->
<g id="node2" class="node"><title>clientb</title>
<ellipse fill="none" stroke="black" cx="181.316" cy="-162" rx="54.1317" ry="18"/>
<text text-anchor="middle" x="181.316" y="-157.8" font-family="Times,serif" font-size="14.00">client:v2.0.0</text>
</g>
<!-- adapter -->
<g id="node3" class="node"><title>adapter</title>
<ellipse fill="none" stroke="black" cx="162.316" cy="-90" rx="60.8873" ry="18"/>
<text text-anchor="middle" x="162.316" y="-85.8" font-family="Times,serif" font-size="14.00">adapter:v1.0.0</text>
</g>
<!-- adapter&#45;&gt;clientb -->
<g id="edge1" class="edge"><title>adapter&#45;&gt;clientb</title>
<path fill="none" stroke="black" d="M167.012,-108.303C169.129,-116.102 171.677,-125.491 174.033,-134.171"/>
<polygon fill="black" stroke="black" points="170.676,-135.162 176.673,-143.896 177.431,-133.328 170.676,-135.162"/>
</g>
<!-- application -->
<g id="node4" class="node"><title>application</title>
<ellipse fill="none" stroke="black" cx="108.316" cy="-18" rx="49.2946" ry="18"/>
<text text-anchor="middle" x="108.316" y="-13.8" font-family="Times,serif" font-size="14.00">application</text>
</g>
<!-- application&#45;&gt;clienta -->
<g id="edge3" class="edge"><title>application&#45;&gt;clienta</title>
<path fill="none" stroke="black" d="M101.802,-36.1285C92.5175,-60.543 75.3929,-105.574 64.4444,-134.365"/>
<polygon fill="black" stroke="black" points="61.1354,-133.22 60.8523,-143.811 67.6783,-135.708 61.1354,-133.22"/>
</g>
<!-- application&#45;&gt;adapter -->
<g id="edge2" class="edge"><title>application&#45;&gt;adapter</title>
<path fill="none" stroke="black" d="M121.113,-35.589C127.674,-44.0944 135.8,-54.6276 143.096,-64.0862"/>
<polygon fill="black" stroke="black" points="140.356,-66.2638 149.235,-72.0438 145.898,-61.9881 140.356,-66.2638"/>
</g>
</g>
</svg>
